<svg width="38" height="38" viewBox="0 0 38 38" fill="none" xmlns="http://www.w3.org/2000/svg">
<path d="M26.6032 0.504395H10.8925C4.06828 0.504395 0 4.57267 0 11.3969V27.0888C0 33.9318 4.06828 38.0001 10.8925 38.0001H26.5844C33.4086 38.0001 37.4769 33.9318 37.4769 27.1076V11.3969C37.4957 4.57267 33.4274 0.504395 26.6032 0.504395ZM18.7478 26.5264C14.7358 26.5264 11.4737 23.2643 11.4737 19.2522C11.4737 15.2402 14.7358 11.9781 18.7478 11.9781C22.7599 11.9781 26.022 15.2402 26.022 19.2522C26.022 23.2643 22.7599 26.5264 18.7478 26.5264ZM29.8465 9.65334C29.7528 9.87831 29.6216 10.0845 29.4528 10.272C29.2654 10.4407 29.0591 10.572 28.8342 10.6657C28.6092 10.7595 28.3655 10.8157 28.1217 10.8157C27.6156 10.8157 27.1469 10.6282 26.7907 10.272C26.6219 10.0845 26.4907 9.87831 26.3969 9.65334C26.3032 9.42836 26.247 9.18464 26.247 8.94092C26.247 8.6972 26.3032 8.45347 26.3969 8.2285C26.4907 7.98478 26.6219 7.7973 26.7907 7.60982C27.2219 7.17862 27.878 6.9724 28.478 7.10363C28.6092 7.12238 28.7217 7.15987 28.8342 7.21612C28.9467 7.25361 29.0591 7.30986 29.1716 7.38485C29.2654 7.44109 29.3591 7.53483 29.4528 7.60982C29.6216 7.7973 29.7528 7.98478 29.8465 8.2285C29.9403 8.45347 29.9965 8.6972 29.9965 8.94092C29.9965 9.18464 29.9403 9.42836 29.8465 9.65334Z" fill="#777777"/>
</svg>
