<svg width="38" height="38" viewBox="0 0 38 38" fill="none" xmlns="http://www.w3.org/2000/svg">
<path d="M38.0001 27.1076C38.0001 33.9318 33.9318 38.0001 27.1076 38.0001H24.8766C23.8454 38.0001 23.0018 37.1564 23.0018 36.1253V25.3078C23.0018 24.8016 23.4142 24.3704 23.9204 24.3704L27.2201 24.3141C27.4825 24.2954 27.7075 24.1079 27.7637 23.8454L28.4199 20.2646C28.4762 19.9271 28.2137 19.6084 27.8575 19.6084L23.8642 19.6647C23.3393 19.6647 22.9268 19.2522 22.9081 18.746L22.8331 14.1528C22.8331 13.8528 23.0768 13.5904 23.3955 13.5904L27.895 13.5154C28.2137 13.5154 28.4574 13.2717 28.4574 12.953L28.3824 8.45346C28.3824 8.13474 28.1387 7.89104 27.82 7.89104L22.7581 7.96605C19.6459 8.02229 17.1712 10.572 17.2275 13.6841L17.3212 18.8398C17.3399 19.3647 16.9275 19.7772 16.4026 19.7959L14.1528 19.8334C13.8341 19.8334 13.5904 20.0771 13.5904 20.3958L13.6466 23.9579C13.6466 24.2766 13.8903 24.5204 14.2091 24.5204L16.4588 24.4829C16.9837 24.4829 17.3962 24.8953 17.4149 25.4015L17.5837 36.0878C17.6024 37.1377 16.7588 38.0001 15.7089 38.0001H11.3969C4.57267 38.0001 0.504395 33.9318 0.504395 27.0888V11.3969C0.504395 4.57267 4.57267 0.504395 11.3969 0.504395H27.1076C33.9318 0.504395 38.0001 4.57267 38.0001 11.3969V27.1076Z" fill="#777777"/>
</svg>
