<svg width="26" height="23" viewBox="0 0 26 23" fill="none" xmlns="http://www.w3.org/2000/svg">
<path d="M10.0839 23C9.31641 23 8.58032 22.6971 8.0376 22.1579C7.49488 21.6188 7.18999 20.8875 7.18999 20.125C7.18999 19.3625 7.49488 18.6312 8.0376 18.0921C8.58032 17.5529 9.31641 17.25 10.0839 17.25C10.8515 17.25 11.5875 17.5529 12.1303 18.0921C12.673 18.6312 12.9779 19.3625 12.9779 20.125C12.9779 20.8875 12.673 21.6188 12.1303 22.1579C11.5875 22.6971 10.8515 23 10.0839 23ZM20.2127 23C19.4452 23 18.7091 22.6971 18.1664 22.1579C17.6237 21.6188 17.3188 20.8875 17.3188 20.125C17.3188 19.3625 17.6237 18.6312 18.1664 18.0921C18.7091 17.5529 19.4452 17.25 20.2127 17.25C20.9803 17.25 21.7163 17.5529 22.2591 18.0921C22.8018 18.6312 23.1067 19.3625 23.1067 20.125C23.1067 20.8875 22.8018 21.6188 22.2591 22.1579C21.7163 22.6971 20.9803 23 20.2127 23ZM1.34711 2.76431C0.985893 2.75274 0.643365 2.60205 0.391964 2.34411C0.140563 2.08617 0 1.7412 0 1.38216C0 1.02311 0.140563 0.678147 0.391964 0.420206C0.643365 0.162266 0.985893 0.0115745 1.34711 0H3.01258C4.31775 0 5.44639 0.899875 5.72999 2.16488L7.54305 10.2752C7.82665 11.5402 8.95529 12.4401 10.2605 12.4401H21.1301L23.2167 4.14575H9.6947C9.33688 4.12953 8.99912 3.9769 8.75168 3.71961C8.50424 3.46231 8.36616 3.12016 8.36616 2.76431C8.36616 2.40846 8.50424 2.06631 8.75168 1.80902C8.99912 1.55173 9.33688 1.3991 9.6947 1.38288H23.2167C23.6397 1.38275 24.0571 1.47844 24.4373 1.66266C24.8175 1.84688 25.1504 2.1148 25.4107 2.44603C25.671 2.77726 25.8519 3.16309 25.9396 3.57419C26.0272 3.9853 26.0194 4.41085 25.9167 4.8185L23.8302 13.11C23.6797 13.7083 23.3323 14.2394 22.843 14.6189C22.3538 14.9984 21.7508 15.2045 21.1301 15.2044H10.2605C8.99406 15.2046 7.76548 14.7757 6.77762 13.9885C5.78976 13.2012 5.1017 12.1029 4.82708 10.8747L3.01258 2.76431H1.34711Z" fill="#85D3FF"/>
</svg>
