<svg width="46" height="45" viewBox="0 0 46 45" fill="none" xmlns="http://www.w3.org/2000/svg">
<path d="M23.2754 45C35.7017 45 45.7754 34.9263 45.7754 22.5C45.7754 10.0736 35.7017 0 23.2754 0C10.849 0 0.775391 10.0736 0.775391 22.5C0.775391 34.9263 10.849 45 23.2754 45Z" fill="white"/>
<path d="M20.0793 30.5552C19.6293 30.5552 19.2018 30.3752 18.8868 30.0602L12.5192 23.6927C11.8667 23.0402 11.8667 21.9602 12.5192 21.3077C13.1717 20.6552 14.2517 20.6552 14.9042 21.3077L20.0793 26.4827L31.6443 14.9177C32.2968 14.2652 33.3768 14.2652 34.0293 14.9177C34.6818 15.5702 34.6818 16.6502 34.0293 17.3027L21.2718 30.0602C20.9568 30.3752 20.5293 30.5552 20.0793 30.5552Z" fill="#85D3FF"/>
</svg>
