<svg width="28" height="25" viewBox="0 0 28 25" fill="none" xmlns="http://www.w3.org/2000/svg">
<path d="M14.14 21.1853L14 21.3215L13.846 21.1853C7.196 15.3134 2.8 11.4305 2.8 7.49319C2.8 4.76839 4.9 2.7248 7.7 2.7248C9.856 2.7248 11.956 4.08719 12.698 5.94005H15.302C16.044 4.08719 18.144 2.7248 20.3 2.7248C23.1 2.7248 25.2 4.76839 25.2 7.49319C25.2 11.4305 20.804 15.3134 14.14 21.1853ZM20.3 0C17.864 0 15.526 1.10354 14 2.83379C12.474 1.10354 10.136 0 7.7 0C3.388 0 0 3.28338 0 7.49319C0 12.6294 4.76 16.8392 11.97 23.2016L14 25L16.03 23.2016C23.24 16.8392 28 12.6294 28 7.49319C28 3.28338 24.612 0 20.3 0Z" fill="#C4C4C4"/>
</svg>
