<svg width="28" height="28" viewBox="0 0 28 28" fill="none" xmlns="http://www.w3.org/2000/svg">
<path d="M12.1123 0.0346065C5.43323 0.0346065 0 5.46783 0 12.1469C0 18.826 5.43323 24.2592 12.1123 24.2592C14.1541 24.2592 16.1613 23.7747 17.857 22.8403C17.9928 23.0038 18.1434 23.1544 18.3069 23.2902L21.7675 26.7509C22.0871 27.1104 22.4767 27.4009 22.9126 27.6044C23.3485 27.8079 23.8213 27.9202 24.3021 27.9344C24.783 27.9485 25.2616 27.8642 25.7087 27.6867C26.1558 27.5092 26.5619 27.2422 26.902 26.902C27.2421 26.5619 27.5092 26.1558 27.6867 25.7087C27.8642 25.2616 27.9485 24.783 27.9343 24.3021C27.9202 23.8213 27.8079 23.3485 27.6044 22.9126C27.4009 22.4767 27.1104 22.0871 26.7509 21.7675L23.2902 18.3069C23.1216 18.1382 22.9361 17.9875 22.7365 17.857C23.6709 16.1613 24.2592 14.1887 24.2592 12.1123C24.2592 5.43323 18.826 0 12.1469 0L12.1123 0.0346065ZM12.1123 3.49526C16.9226 3.49526 20.7639 7.33659 20.7639 12.1469C20.7639 14.4309 19.9334 16.5419 18.4799 18.0992C18.4453 18.1338 18.4107 18.1684 18.3761 18.203C18.2126 18.3389 18.062 18.4895 17.9262 18.6529C16.4035 20.0372 14.3271 20.8331 12.0777 20.8331C7.26737 20.8331 3.42605 16.9918 3.42605 12.1815C3.42605 7.37119 7.26737 3.52987 12.0777 3.52987L12.1123 3.49526Z" fill="#C4C4C4"/>
</svg>
