<svg width="23" height="23" viewBox="0 0 23 23" fill="none" xmlns="http://www.w3.org/2000/svg">
<path d="M11.4998 17.8889C11.8618 17.8889 12.1655 17.7662 12.4108 17.5209C12.6561 17.2756 12.7784 16.9723 12.7775 16.6111V12.7778H16.6109C16.9729 12.7778 17.2766 12.6551 17.5219 12.4098C17.7673 12.1644 17.8895 11.8612 17.8886 11.5C17.8886 11.138 17.766 10.8343 17.5206 10.5889C17.2753 10.3436 16.9721 10.2214 16.6109 10.2222H12.7775V6.38889C12.7775 6.02685 12.6549 5.72317 12.4095 5.47784C12.1642 5.2325 11.8609 5.11026 11.4998 5.11111C11.1377 5.11111 10.834 5.23378 10.5887 5.47911C10.3434 5.72445 10.2211 6.02771 10.222 6.38889V10.2222H6.38865C6.02661 10.2222 5.72292 10.3449 5.47759 10.5902C5.23226 10.8356 5.11002 11.1388 5.11087 11.5C5.11087 11.862 5.23354 12.1657 5.47887 12.4111C5.7242 12.6564 6.02746 12.7786 6.38865 12.7778H10.222V16.6111C10.222 16.9731 10.3446 17.2768 10.59 17.5222C10.8353 17.7675 11.1386 17.8897 11.4998 17.8889ZM2.55531 23C1.85254 23 1.2507 22.7496 0.749813 22.2487C0.248924 21.7478 -0.00109382 21.1464 -0.000241971 20.4444V2.55556C-0.000241971 1.85278 0.250202 1.25095 0.751091 0.750057C1.25198 0.249169 1.85339 -0.000849682 2.55531 2.1694e-06H20.4442C21.147 2.1694e-06 21.7488 0.250447 22.2497 0.751335C22.7506 1.25222 23.0006 1.85363 22.9998 2.55556V20.4444C22.9998 21.1472 22.7493 21.7491 22.2484 22.2499C21.7475 22.7508 21.1461 23.0009 20.4442 23H2.55531ZM2.55531 20.4444H20.4442V2.55556H2.55531V20.4444Z" fill="#85D3FF"/>
</svg>
