<svg width="33" height="34" viewBox="0 0 33 34" fill="none" xmlns="http://www.w3.org/2000/svg">
<path d="M25.1949 33.7373C24.3812 33.7373 23.3371 33.4763 22.0321 32.7087L17.4415 29.9911C16.9655 29.7148 16.0443 29.7148 15.5837 29.9911L10.9778 32.7087C8.26025 34.3207 6.66351 33.6759 5.9419 33.1539C5.23565 32.6319 4.13022 31.2962 4.85182 28.2255L5.9419 23.512C6.06473 23.0207 5.81908 22.1763 5.4506 21.8078L1.64298 18.0002C-0.260825 16.0964 -0.107292 14.4689 0.153714 13.6705C0.41472 12.8722 1.2438 11.4597 3.88456 11.0144L8.78226 10.2007C9.24286 10.1239 9.90305 9.63262 10.1026 9.21808L12.8202 3.79837C14.0484 1.32649 15.6605 0.958008 16.5049 0.958008C17.3494 0.958008 18.9615 1.32649 20.1897 3.79837L22.8919 9.20272C23.1069 9.61726 23.767 10.1086 24.2276 10.1853L29.1253 10.9991C31.7815 11.4443 32.6105 12.8568 32.8562 13.6552C33.1018 14.4536 33.2554 16.081 31.3669 17.9848L27.5593 21.8078C27.1908 22.1763 26.9605 23.0054 27.068 23.512L28.1581 28.2255C28.8643 31.2962 27.7743 32.6319 27.068 33.1539C26.6842 33.4303 26.07 33.7373 25.1949 33.7373ZM16.5049 27.4732C17.2572 27.4732 18.0096 27.6574 18.6083 28.0105L23.199 30.7281C24.5347 31.5265 25.3791 31.5264 25.7016 31.2962C26.024 31.0659 26.2543 30.2521 25.9165 28.7475L24.8264 24.034C24.5347 22.7597 25.0107 21.1169 25.9319 20.1804L29.7395 16.3728C30.4918 15.6204 30.8296 14.8835 30.676 14.3768C30.5071 13.8701 29.8009 13.4556 28.7569 13.2867L23.8592 12.473C22.677 12.2734 21.3873 11.3215 20.8499 10.2467L18.1477 4.84239C17.6564 3.85978 17.0423 3.27635 16.5049 3.27635C15.9676 3.27635 15.3534 3.85978 14.8775 4.84239L12.16 10.2467C11.6226 11.3215 10.3329 12.2734 9.15074 12.473L4.26839 13.2867C3.22437 13.4556 2.51812 13.8701 2.34923 14.3768C2.18035 14.8835 2.53347 15.6358 3.28578 16.3728L7.0934 20.1804C8.0146 21.1016 8.49055 22.7597 8.19884 24.034L7.10875 28.7475C6.75563 30.2675 7.00128 31.0659 7.3237 31.2962C7.64612 31.5264 8.4752 31.5111 9.82629 30.7281L14.4169 28.0105C15.0003 27.6574 15.7526 27.4732 16.5049 27.4732Z" fill="black" fill-opacity="0.5"/>
</svg>
