<svg width="37" height="34" viewBox="0 0 37 34" fill="none" xmlns="http://www.w3.org/2000/svg">
<path d="M35.2795 25.1286V4.44096C35.2795 2.38419 33.5998 0.858753 31.5602 1.03015H31.4573C27.858 1.33867 22.3904 3.17262 19.3395 5.09227L19.0482 5.28081C18.5511 5.58932 17.7284 5.58932 17.2313 5.28081L16.8028 5.02371C13.752 3.1212 8.30153 1.30439 4.70219 1.01301C2.66256 0.841614 1 2.38419 1 4.42382V25.1286C1 26.774 2.3369 28.3166 3.98232 28.5222L4.47937 28.5908C8.1987 29.0878 13.9405 30.9732 17.2313 32.7729L17.2999 32.8072C17.7627 33.0643 18.4997 33.0643 18.9453 32.8072C22.2362 30.9904 27.9951 29.0878 31.7316 28.5908L32.2972 28.5222C33.9426 28.3166 35.2795 26.774 35.2795 25.1286Z" stroke="#777777" stroke-width="2" stroke-linecap="round" stroke-linejoin="round"/>
<path d="M18.1396 5.8465V31.5561" stroke="#777777" stroke-width="2" stroke-linecap="round" stroke-linejoin="round"/>
<path d="M10.8555 10.9884H6.99902" stroke="#777777" stroke-width="2" stroke-linecap="round" stroke-linejoin="round"/>
<path d="M12.1409 16.1304H6.99902" stroke="#777777" stroke-width="2" stroke-linecap="round" stroke-linejoin="round"/>
</svg>
