<svg width="34" height="35" viewBox="0 0 34 35" fill="none" xmlns="http://www.w3.org/2000/svg">
<path d="M1 10.6C1 4.2 4.2 1 10.6 1H23.4C29.8 1 33 4.2 33 10.6V18.6C33 25 29.8 28.2 23.4 28.2H22.6C22.104 28.2 21.624 28.44 21.32 28.84L18.92 32.04C17.864 33.448 16.136 33.448 15.08 32.04L12.68 28.84C12.424 28.488 11.832 28.2 11.4 28.2H10.6C4.2 28.2 1 26.6 1 18.6V17" stroke="#777777" stroke-width="2" stroke-miterlimit="10" stroke-linecap="round" stroke-linejoin="round"/>
<path d="M23.3945 15.4H23.4094" stroke="#777777" stroke-width="2" stroke-linecap="round" stroke-linejoin="round"/>
<path d="M16.9912 15.4H17.0062" stroke="#777777" stroke-width="2" stroke-linecap="round" stroke-linejoin="round"/>
<path d="M10.5913 15.4H10.6063" stroke="#777777" stroke-width="2" stroke-linecap="round" stroke-linejoin="round"/>
</svg>
