<svg width="21" height="21" viewBox="0 0 21 21" fill="none" xmlns="http://www.w3.org/2000/svg">
<path d="M19.5152 20.2326H0.910565C0.52917 20.2326 0.212891 19.9163 0.212891 19.5349C0.212891 19.1535 0.52917 18.8373 0.910565 18.8373H19.5152C19.8966 18.8373 20.2129 19.1535 20.2129 19.5349C20.2129 19.9163 19.8966 20.2326 19.5152 20.2326Z" fill="black" fill-opacity="0.5"/>
<path d="M2.49203 19.5346H1.09668L1.14318 8.34395C1.14318 7.55325 1.50598 6.8184 2.12924 6.33468L8.64087 1.2649C9.5618 0.548622 10.8548 0.548622 11.7851 1.2649L18.2967 6.32537C18.9106 6.80909 19.2827 7.56256 19.2827 8.34395V19.5346H17.8874V8.35326C17.8874 7.99978 17.7199 7.6556 17.4409 7.43234L10.9292 2.37188C10.5106 2.0463 9.92459 2.0463 9.49668 2.37188L2.98504 7.44165C2.70597 7.65561 2.53853 7.99978 2.53853 8.35326L2.49203 19.5346Z" fill="black" fill-opacity="0.5"/>
<path d="M12.5383 20.2326H7.88713C7.50573 20.2326 7.18945 19.9163 7.18945 19.5349V16.2791C7.18945 15.1256 8.12899 14.1861 9.28248 14.1861H11.1429C12.2964 14.1861 13.236 15.1256 13.236 16.2791V19.5349C13.236 19.9163 12.9197 20.2326 12.5383 20.2326ZM8.5848 18.8373H11.8406V16.2791C11.8406 15.8977 11.5243 15.5814 11.1429 15.5814H9.28248C8.90108 15.5814 8.5848 15.8977 8.5848 16.2791V18.8373Z" fill="black" fill-opacity="0.5"/>
<path d="M7.8873 12.5582H6.02683C5.13381 12.5582 4.39893 11.8233 4.39893 10.9303V9.53493C4.39893 8.6419 5.13381 7.90702 6.02683 7.90702H7.8873C8.78032 7.90702 9.51521 8.6419 9.51521 9.53493V10.9303C9.51521 11.8233 8.78032 12.5582 7.8873 12.5582ZM6.02683 9.30237C5.8966 9.30237 5.79427 9.40469 5.79427 9.53493V10.9303C5.79427 11.0605 5.8966 11.1628 6.02683 11.1628H7.8873C8.01753 11.1628 8.11986 11.0605 8.11986 10.9303V9.53493C8.11986 9.40469 8.01753 9.30237 7.8873 9.30237H6.02683Z" fill="black" fill-opacity="0.5"/>
<path d="M14.399 12.5582H12.5386C11.6455 12.5582 10.9106 11.8233 10.9106 10.9303V9.53493C10.9106 8.6419 11.6455 7.90702 12.5386 7.90702H14.399C15.292 7.90702 16.0269 8.6419 16.0269 9.53493V10.9303C16.0269 11.8233 15.292 12.5582 14.399 12.5582ZM12.5386 9.30237C12.4083 9.30237 12.306 9.40469 12.306 9.53493V10.9303C12.306 11.0605 12.4083 11.1628 12.5386 11.1628H14.399C14.5292 11.1628 14.6316 11.0605 14.6316 10.9303V9.53493C14.6316 9.40469 14.5292 9.30237 14.399 9.30237H12.5386Z" fill="black" fill-opacity="0.5"/>
<path d="M16.7248 6.27912C16.3434 6.27912 16.0272 5.97215 16.0272 5.59075L16.0086 3.48842H12.6132C12.2318 3.48842 11.9155 3.17214 11.9155 2.79074C11.9155 2.40935 12.2318 2.09307 12.6132 2.09307H16.7062C17.0876 2.09307 17.4039 2.40004 17.4039 2.78143L17.4318 5.57213C17.4225 5.96283 17.1155 6.27912 16.7248 6.27912Z" fill="black" fill-opacity="0.5"/>
</svg>
