<svg width="20" height="20" viewBox="0 0 20 20" fill="none" xmlns="http://www.w3.org/2000/svg">
<path d="M11.7276 1.43234L13.4875 4.95195C13.7274 5.4419 14.3674 5.91184 14.9073 6.00183L18.0969 6.53177C20.1367 6.87173 20.6167 8.35155 19.1468 9.81139L16.6671 12.2911C16.2471 12.7111 16.0172 13.521 16.1472 14.1009L16.8571 17.1706C17.417 19.6003 16.1272 20.5402 13.9774 19.2703L10.9877 17.5005C10.4478 17.1806 9.55789 17.1806 9.00795 17.5005L6.01826 19.2703C3.8785 20.5402 2.57864 19.5903 3.13858 17.1706L3.8485 14.1009C3.97849 13.521 3.74851 12.7111 3.32856 12.2911L0.848837 9.81139C-0.610999 8.35155 -0.141052 6.87173 1.89872 6.53177L5.08836 6.00183C5.6183 5.91184 6.25823 5.4419 6.4982 4.95195L8.25804 1.43234C9.21793 -0.477446 10.7778 -0.477446 11.7276 1.43234Z" fill="#FFD600"/>
</svg>
