<svg width="31" height="27" viewBox="0 0 31 27" fill="none" xmlns="http://www.w3.org/2000/svg">
<path d="M14.2302 4.58068L15.8316 6.72119L17.433 4.58068C18.6053 3.01375 20.4805 2 22.5664 2C26.1092 2 29.0001 4.88734 29.0001 8.47919C29.0001 10.0667 28.7473 11.5278 28.3084 12.8844L28.3084 12.8844L28.3043 12.8974C27.2492 16.2364 25.0711 18.9706 22.6602 21.0426C20.2405 23.1222 17.7015 24.4346 16.1278 24.9701L16.1171 24.9737L16.1163 24.974C16.1109 24.9753 16.09 24.9803 16.0519 24.9857C15.9924 24.9942 15.9162 25 15.8316 25C15.747 25 15.6707 24.9942 15.6113 24.9857C15.5732 24.9803 15.5523 24.9753 15.5469 24.974L15.5461 24.9737L15.5354 24.9701C13.9617 24.4346 11.4227 23.1222 9.00296 21.0426C6.59205 18.9706 4.41401 16.2364 3.3589 12.8974L3.35894 12.8974L3.35474 12.8844C2.91585 11.5278 2.66309 10.0667 2.66309 8.47919C2.66309 4.88734 5.55395 2 9.09678 2C11.1827 2 13.0579 3.01375 14.2302 4.58068Z" stroke="#85D3FF" stroke-width="4"/>
</svg>
