<svg width="54" height="49" viewBox="0 0 54 49" fill="none" xmlns="http://www.w3.org/2000/svg">
<path d="M2 41.5515V16.8318C2 14.1014 4.21348 11.8879 6.94394 11.8879H8.17993C9.73606 11.8879 11.2014 11.1552 12.1351 9.91031L17.6229 2.59327C17.903 2.21981 18.3426 2 18.8094 2H34.63C35.097 2 35.5365 2.21981 35.8166 2.59327L41.3043 9.91031C42.238 11.1552 43.7034 11.8879 45.2595 11.8879H46.4955C49.226 11.8879 51.4394 14.1014 51.4394 16.8318V41.5515C51.4394 44.2821 49.226 46.4955 46.4955 46.4955H6.94394C4.21348 46.4955 2 44.2821 2 41.5515Z" stroke="#85D3FF" stroke-width="4" stroke-linecap="round" stroke-linejoin="round"/>
<path d="M26.7199 36.6078C32.1807 36.6078 36.6078 32.1807 36.6078 26.7199C36.6078 21.2591 32.1807 16.832 26.7199 16.832C21.259 16.832 16.832 21.2591 16.832 26.7199C16.832 32.1807 21.259 36.6078 26.7199 36.6078Z" stroke="#85D3FF" stroke-width="4" stroke-linecap="round" stroke-linejoin="round"/>
</svg>
